<?xml version="1.0" encoding="UTF-8"?>
<svg width="573px" height="839px" viewBox="0 0 573 839" version="1.1" xmlns="http://www.w3.org/2000/svg" xmlns:xlink="http://www.w3.org/1999/xlink">
    <defs></defs>
    <g id="Exports" stroke="none" stroke-width="1" fill="none" fill-rule="evenodd" opacity="0.105636161">
        <g id="IMG-Menu" fill="#FFFFFF">
            <g id="IMG_COGNITE_BG">
                <path d="M78.0237004,163 C78.001569,162.018072 77.9130435,161.069243 77.9130435,160.06525 C77.9130435,146.009341 80.1372476,132.957425 84.5967216,120.909503 C89.0672612,108.861581 95.2419175,98.4685935 103.164953,89.7084743 C111.076923,80.970421 120.427433,74.1520915 131.216483,69.2755516 C142.005533,64.3990118 153.713035,61.9607418 166.383253,61.9607418 C179.042405,61.9607418 190.185557,64.1121565 199.823775,68.4149858 C209.461993,72.7178151 217.595276,78.8852037 224.21256,86.9171518 L276,44.7494247 C269.37165,36.4306214 261.902308,29.4136997 253.558776,23.6655611 C245.215244,17.9284554 236.51761,13.3387708 227.443743,9.89650738 C218.392006,6.45424394 209.174285,3.94977663 199.823775,2.36103966 C190.48433,0.794368485 181.487923,0 172.856683,0 C148.976919,0 126.956191,3.72911872 106.827697,11.1873562 C86.6881374,18.6566265 69.2818035,29.3364695 54.6086957,43.2489509 C39.9355878,57.1614322 28.5047277,74.0086639 20.3050498,93.8016786 C12.0943061,113.594693 8,135.68255 8,160.06525 C8,161.069243 8.12172261,162.007039 8.13278831,163 L78.0237004,163 Z" id="Fill-1"></path>
                <path d="M560.620754,189.763441 C552.36421,169.978495 540.854074,153.138131 526.068063,139.220292 C511.293194,125.324511 493.766143,114.637993 473.498053,107.182796 C453.207679,99.7275986 431.045375,96 407,96 L407,157.935484 C421.485166,157.935484 434.58867,160.37276 446.332796,165.247312 C458.065781,170.121864 468.1274,176.937414 476.528796,185.671905 C484.930192,194.428453 491.37052,204.817204 495.860921,216.860215 C500.362465,228.903226 502.602094,241.949821 502.602094,256 C502.602094,270.347946 500.362465,283.460711 495.860921,295.360353 C491.37052,307.259994 484.930192,317.582575 476.528796,326.317066 C468.1274,335.073615 458.065781,341.878136 446.332796,346.752688 C434.58867,351.62724 421.485166,354.064516 407,354.064516 L407,416 C431.045375,416 453.207679,412.272401 473.498053,404.817204 C493.766143,397.362007 511.293194,386.686518 526.068063,372.779708 C540.854074,358.861869 552.36421,342.021505 560.620754,322.236559 C568.877299,302.451613 573,280.37276 573,256 C573,231.62724 568.877299,209.548387 560.620754,189.763441" id="Fill-6"></path>
                <path d="M173.469809,362 L173.469809,424.081342 L228.272459,424.081342 L228.272459,473.733134 C221.943544,477.186402 213.44598,480.562193 202.81296,483.871574 C192.157811,487.180956 179.511046,488.830112 164.83947,488.830112 C150.455572,488.830112 137.432612,486.395116 125.781655,481.491918 C114.141762,476.610857 104.139421,469.770731 95.7967599,460.993675 C87.4540992,452.21662 81.0477323,441.856817 76.588724,429.914266 C72.1297156,417.982783 69.9057437,404.811665 69.9057437,390.411982 C69.9057437,380.439564 71.0785846,370.976283 73.3136211,362 L2.19077829,362 C0.851969337,371.131237 0,380.539178 0,390.411982 C0,414.883696 4.09387863,437.031096 12.303765,456.898454 C20.5025868,476.754743 31.9322533,493.655833 46.6038292,507.61279 C61.275405,521.569747 78.6799215,532.2948 98.8173785,539.77688 C118.943771,547.247892 140.962199,551 164.83947,551 C187.278351,551 209.285714,548.686753 230.861561,544.093465 C252.437408,539.489108 273.150221,531.995959 293,521.636156 L293,362 L173.469809,362 Z" id="Fill-4"></path>
                <polygon id="Fill-10" points="484.575665 533 484.575665 745.644068 483.722333 745.644068 407 620.238592 407 746.297914 463.840798 839 552 839 552 533"></polygon>
            </g>
        </g>
    </g>
</svg>